<svg width="85" height="85" viewBox="0 0 85 85" fill="none" xmlns="http://www.w3.org/2000/svg">
<path fill-rule="evenodd" clip-rule="evenodd" d="M42.5 85C65.9721 85 85 65.9721 85 42.5C85 19.0279 65.9721 0 42.5 0C19.0279 0 0 19.0279 0 42.5C0 65.9721 19.0279 85 42.5 85ZM26.9107 42.2822C27.5665 41.1187 27.8944 39.8282 27.8944 38.4107C27.8944 36.0625 27.154 34.1902 25.6731 32.7939C24.2134 31.3977 22.1084 30.6995 19.3582 30.6995H9.52084V53.1667H16.5656V46.0267H19.3582C21.1776 46.0267 22.7219 45.6883 23.9912 45.0113C25.2817 44.3343 26.2549 43.4246 26.9107 42.2822ZM20.7544 38.4107C20.7544 39.7859 20.0246 40.4734 18.5648 40.4734H16.5656V36.3481H18.5648C20.0246 36.3481 20.7544 37.0356 20.7544 38.4107ZM35.9361 53.1667L37.0468 49.7713H44.5359L45.6465 53.1667H53.0721L44.8849 30.6995H36.7612L28.5422 53.1667H35.9361ZM40.7913 38.2203L42.8223 44.4718H38.7604L40.7913 38.2203ZM70.1903 32.1275C68.4344 31.1755 66.3823 30.6995 64.034 30.6995H54.6727V53.1667H64.034C66.3823 53.1667 68.4344 52.6802 70.1903 51.707C71.9673 50.7127 73.3319 49.3587 74.2839 47.6451C75.2359 45.9315 75.7119 44.0064 75.7119 41.8697C75.7119 39.7118 75.2359 37.7867 74.2839 36.0942C73.3319 34.4018 71.9673 33.0795 70.1903 32.1275ZM67.1756 45.5825C66.2448 46.4499 64.986 46.8835 63.3993 46.8835H61.7175V36.8558H63.3993C64.986 36.8558 66.2448 37.2895 67.1756 38.1569C68.1064 39.0243 68.5719 40.2619 68.5719 41.8697C68.5719 43.4775 68.1064 44.7151 67.1756 45.5825Z" fill="#923B1D"/>
</svg>
