<svg width="100" height="100" viewBox="0 0 100 100" fill="none" xmlns="http://www.w3.org/2000/svg">
<path fill-rule="evenodd" clip-rule="evenodd" d="M10 0C4.47715 0 0 4.47716 0 10V90C0 95.5229 4.47716 100 10 100H90C95.5229 100 100 95.5228 100 90V10C100 4.47715 95.5228 0 90 0H10ZM39.689 39.9661C38.9145 39.3719 38.7683 38.2624 39.3625 37.4879C39.9567 36.7133 41.0662 36.5671 41.8408 37.1613L51.3257 44.4378L60.8118 37.1615C61.5863 36.5673 62.6959 36.7136 63.29 37.4882C63.8841 38.2627 63.7379 39.3723 62.9633 39.9664L52.4447 48.0347C52.1143 48.2882 51.7228 48.4069 51.3365 48.3996C50.9433 48.4117 50.5435 48.2933 50.2071 48.0352L39.689 39.9661ZM68.4521 71.3329C68.649 71.1244 68.7475 70.8696 68.7475 70.5684V63.3926C68.7475 63.0914 68.649 62.8424 68.4521 62.6455C68.2552 62.437 68.0061 62.3327 67.705 62.3327C67.4038 62.3327 67.1548 62.437 66.9579 62.6455C66.7609 62.8424 66.6625 63.0914 66.6625 63.3926V70.5684C66.6625 70.8696 66.7609 71.1244 66.9579 71.3329C67.1548 71.5298 67.4038 71.6283 67.705 71.6283C68.0061 71.6283 68.2552 71.5298 68.4521 71.3329ZM66.8536 61.0122C67.0158 61.1396 67.2938 61.2034 67.6876 61.2034C68.0814 61.2034 68.3652 61.1454 68.539 61.0296C68.7127 60.9022 68.7996 60.6705 68.7996 60.3346V60.0045C68.7996 59.6802 68.7185 59.4543 68.5564 59.3269C68.3942 59.1994 68.1104 59.1357 67.705 59.1357C67.3343 59.1357 67.0563 59.1994 66.871 59.3269C66.6972 59.4427 66.6104 59.6686 66.6104 60.0045V60.3346C66.6104 60.6589 66.6914 60.8848 66.8536 61.0122ZM15.5346 62.8366C15.0945 62.3848 14.411 62.159 13.4844 62.159C13.1021 62.159 12.7489 62.2227 12.4245 62.3501C12.1002 62.4659 11.8048 62.6223 11.5384 62.8192C11.272 63.0161 11.0461 63.2304 10.8608 63.4621C10.7983 63.5363 10.7403 63.6093 10.687 63.6809V63.3926C10.687 63.0914 10.5886 62.8424 10.3917 62.6455C10.1947 62.437 9.94571 62.3327 9.64454 62.3327C9.34338 62.3327 9.09434 62.437 8.89742 62.6455C8.70051 62.8424 8.60205 63.0914 8.60205 63.3926V70.5684C8.60205 70.8696 8.70051 71.1244 8.89742 71.3329C9.09434 71.5298 9.34338 71.6283 9.64454 71.6283C9.94571 71.6283 10.1947 71.5298 10.3917 71.3329C10.5886 71.1244 10.687 70.8696 10.687 70.5684V66.1204C10.687 65.7382 10.7623 65.3965 10.9129 65.0953C11.0751 64.7826 11.3125 64.5335 11.6253 64.3482C11.938 64.1629 12.3145 64.0702 12.7546 64.0702C13.2064 64.0702 13.5539 64.1629 13.7971 64.3482C14.0404 64.5335 14.2083 64.7826 14.301 65.0953C14.3937 65.3965 14.44 65.7382 14.44 66.1204V70.5684C14.44 70.8696 14.5385 71.1244 14.7354 71.3329C14.9323 71.5298 15.1813 71.6283 15.4825 71.6283C15.7837 71.6283 16.0327 71.5298 16.2296 71.3329C16.4265 71.1244 16.525 70.8696 16.525 70.5684V66.1204C16.525 65.7382 16.6003 65.3965 16.7509 65.0953C16.913 64.7826 17.1505 64.5335 17.4632 64.3482C17.776 64.1629 18.1524 64.0702 18.5926 64.0702C19.0443 64.0702 19.3918 64.1629 19.6351 64.3482C19.8783 64.5335 20.0463 64.7826 20.139 65.0953C20.2316 65.3965 20.278 65.7382 20.278 66.1204V70.5684C20.278 70.8696 20.3764 71.1244 20.5733 71.3329C20.7703 71.5298 21.0193 71.6283 21.3205 71.6283C21.6216 71.6283 21.8707 71.5298 22.0676 71.3329C22.2645 71.1244 22.3629 70.8696 22.3629 70.5684V66.1204C22.3629 65.3907 22.2819 64.7304 22.1197 64.1397C21.9575 63.5374 21.6564 63.0567 21.2162 62.6976C20.7876 62.3385 20.1563 62.159 19.3223 62.159C18.8127 62.159 18.3494 62.269 17.9324 62.4891C17.5269 62.6976 17.1794 62.9582 16.8899 63.271C16.6199 63.5517 16.4154 63.8174 16.2763 64.068C16.1157 63.5809 15.8685 63.1704 15.5346 62.8366ZM32.9768 62.4543C32.7799 62.2574 32.5309 62.159 32.2297 62.159C31.9285 62.159 31.6795 62.2632 31.4826 62.4717C31.2857 62.6686 31.1872 62.9177 31.1872 63.2188V63.2468C31.0841 63.1496 30.9683 63.0534 30.8397 62.9582C30.5385 62.7265 30.1795 62.5354 29.7625 62.3848C29.3455 62.2343 28.8879 62.159 28.3899 62.159C27.6138 62.159 26.9072 62.3675 26.2701 62.7845C25.633 63.1899 25.1234 63.7575 24.7411 64.4872C24.3705 65.2054 24.1851 66.0394 24.1851 66.9892C24.1851 67.9274 24.3705 68.7614 24.7411 69.4912C25.1234 70.2093 25.6388 70.7769 26.2875 71.1939C26.9362 71.5993 27.6601 71.802 28.4594 71.802C28.8995 71.802 29.3049 71.7325 29.6756 71.5935C30.0578 71.4429 30.388 71.2634 30.666 71.0549C30.8714 70.9008 31.0452 70.7467 31.1874 70.5926C31.1926 70.8833 31.291 71.13 31.4826 71.3329C31.6795 71.5298 31.9285 71.6283 32.2297 71.6283C32.5309 71.6283 32.7799 71.5298 32.9768 71.3329C33.1737 71.1244 33.2722 70.8696 33.2722 70.5684V63.2188C33.2722 62.9061 33.1737 62.6513 32.9768 62.4543ZM30.0578 69.5085C29.6756 69.7634 29.2296 69.8908 28.72 69.8908C28.2219 69.8908 27.7817 69.7634 27.3995 69.5085C27.0172 69.2537 26.7161 68.9062 26.496 68.466C26.2875 68.0259 26.1832 67.5336 26.1832 66.9892C26.1832 66.4332 26.2875 65.9351 26.496 65.4949C26.7161 65.0548 27.0172 64.7073 27.3995 64.4525C27.7817 64.1976 28.2219 64.0702 28.72 64.0702C29.2296 64.0702 29.6756 64.1976 30.0578 64.4525C30.4401 64.7073 30.7355 65.0548 30.944 65.4949C31.164 65.9351 31.2741 66.4332 31.2741 66.9892C31.2741 67.5336 31.164 68.0259 30.944 68.466C30.7355 68.9062 30.4401 69.2537 30.0578 69.5085ZM36.4506 71.6109C36.1147 71.6109 35.854 71.524 35.6687 71.3503C35.495 71.1649 35.4081 70.9043 35.4081 70.5684V70.273C35.4081 69.9371 35.495 69.6823 35.6687 69.5085C35.854 69.3232 36.1147 69.2305 36.4506 69.2305H36.6764C37.0124 69.2305 37.2672 69.3232 37.4409 69.5085C37.6263 69.6823 37.7189 69.9371 37.7189 70.273V70.5684C37.7189 70.9043 37.6263 71.1649 37.4409 71.3503C37.2672 71.524 37.0124 71.6109 36.6764 71.6109H36.4506ZM46.789 62.8366C46.3489 62.3848 45.6655 62.159 44.7388 62.159C44.3565 62.159 44.0033 62.2227 43.6789 62.3501C43.3546 62.4659 43.0592 62.6223 42.7928 62.8192C42.5264 63.0161 42.3005 63.2304 42.1152 63.4621C42.0527 63.5363 41.9947 63.6093 41.9414 63.6809V63.3926C41.9414 63.0914 41.843 62.8424 41.6461 62.6455C41.4492 62.437 41.2001 62.3327 40.8989 62.3327C40.5978 62.3327 40.3487 62.437 40.1518 62.6455C39.9549 62.8424 39.8565 63.0914 39.8565 63.3926V70.5684C39.8565 70.8696 39.9549 71.1244 40.1518 71.3329C40.3487 71.5298 40.5978 71.6283 40.8989 71.6283C41.2001 71.6283 41.4492 71.5298 41.6461 71.3329C41.843 71.1244 41.9414 70.8696 41.9414 70.5684V66.1204C41.9414 65.7382 42.0167 65.3965 42.1673 65.0953C42.3295 64.7826 42.5669 64.5335 42.8797 64.3482C43.1924 64.1629 43.5689 64.0702 44.009 64.0702C44.4608 64.0702 44.8083 64.1629 45.0515 64.3482C45.2948 64.5335 45.4627 64.7826 45.5554 65.0953C45.6481 65.3965 45.6944 65.7382 45.6944 66.1204V70.5684C45.6944 70.8696 45.7929 71.1244 45.9898 71.3329C46.1867 71.5298 46.4357 71.6283 46.7369 71.6283C47.0381 71.6283 47.2871 71.5298 47.484 71.3329C47.6809 71.1244 47.7794 70.8696 47.7794 70.5684V66.1204C47.7794 65.7382 47.8547 65.3965 48.0053 65.0953C48.1674 64.7826 48.4049 64.5335 48.7176 64.3482C49.0304 64.1629 49.4068 64.0702 49.847 64.0702C50.2987 64.0702 50.6462 64.1629 50.8895 64.3482C51.1327 64.5335 51.3007 64.7826 51.3934 65.0953C51.486 65.3965 51.5324 65.7382 51.5324 66.1204V70.5684C51.5324 70.8696 51.6308 71.1244 51.8277 71.3329C52.0247 71.5298 52.2737 71.6283 52.5749 71.6283C52.876 71.6283 53.1251 71.5298 53.322 71.3329C53.5189 71.1244 53.6174 70.8696 53.6174 70.5684V66.1204C53.6174 65.3907 53.5363 64.7304 53.3741 64.1397C53.2119 63.5374 52.9108 63.0567 52.4706 62.6976C52.042 62.3385 51.4107 62.159 50.5767 62.159C50.0671 62.159 49.6038 62.269 49.1868 62.4891C48.7813 62.6976 48.4338 62.9582 48.1443 63.271C47.8743 63.5517 47.6698 63.8174 47.5307 64.068C47.3701 63.5809 47.1229 63.1704 46.789 62.8366ZM63.4841 62.159C63.7853 62.159 64.0343 62.2574 64.2312 62.4543C64.4281 62.6513 64.5266 62.9061 64.5266 63.2188V70.5684C64.5266 70.8696 64.4281 71.1244 64.2312 71.3329C64.0343 71.5298 63.7853 71.6283 63.4841 71.6283C63.1829 71.6283 62.9339 71.5298 62.737 71.3329C62.5454 71.13 62.447 70.8833 62.4418 70.5926C62.2996 70.7467 62.1258 70.9008 61.9204 71.0549C61.6424 71.2634 61.3123 71.4429 60.93 71.5935C60.5593 71.7325 60.1539 71.802 59.7138 71.802C58.9145 71.802 58.1906 71.5993 57.5419 71.1939C56.8932 70.7769 56.3778 70.2093 55.9955 69.4912C55.6249 68.7614 55.4395 67.9274 55.4395 66.9892C55.4395 66.0394 55.6249 65.2054 55.9955 64.4872C56.3778 63.7575 56.8875 63.1899 57.5245 62.7845C58.1616 62.3675 58.8682 62.159 59.6443 62.159C60.1423 62.159 60.5999 62.2343 61.0169 62.3848C61.4339 62.5354 61.793 62.7265 62.0941 62.9582C62.2227 63.0534 62.3385 63.1496 62.4416 63.2468V63.2188C62.4416 62.9177 62.5401 62.6686 62.737 62.4717C62.9339 62.2632 63.1829 62.159 63.4841 62.159ZM59.9744 69.8908C60.484 69.8908 60.93 69.7634 61.3123 69.5085C61.6945 69.2537 61.9899 68.9062 62.1984 68.466C62.4184 68.0259 62.5285 67.5336 62.5285 66.9892C62.5285 66.4332 62.4184 65.9351 62.1984 65.4949C61.9899 65.0548 61.6945 64.7073 61.3123 64.4525C60.93 64.1976 60.484 64.0702 59.9744 64.0702C59.4763 64.0702 59.0361 64.1976 58.6539 64.4525C58.2716 64.7073 57.9705 65.0548 57.7504 65.4949C57.5419 65.9351 57.4377 66.4332 57.4377 66.9892C57.4377 67.5336 57.5419 68.0259 57.7504 68.466C57.9705 68.9062 58.2716 69.2537 58.6539 69.5085C59.0361 69.7634 59.4763 69.8908 59.9744 69.8908ZM71.9328 71.6283C71.6316 71.6283 71.3826 71.5298 71.1857 71.3329C70.9887 71.1244 70.8903 70.8696 70.8903 70.5684V63.3926C70.8903 63.0914 70.9887 62.8424 71.1857 62.6455C71.3826 62.437 71.6316 62.3327 71.9328 62.3327C72.2339 62.3327 72.483 62.437 72.6799 62.6455C72.8768 62.8424 72.9753 63.0914 72.9753 63.3926V63.6251C73.0796 63.4434 73.2012 63.2791 73.3401 63.132C73.5486 62.9119 73.7803 62.7323 74.0351 62.5933C74.29 62.4428 74.5622 62.3327 74.8517 62.2632C75.1413 62.1937 75.4309 62.159 75.7205 62.159C76.068 62.159 76.3576 62.2574 76.5892 62.4543C76.8325 62.6513 76.9541 62.8829 76.9541 63.1493C76.9541 63.5316 76.8557 63.8096 76.6587 63.9833C76.4618 64.1455 76.2475 64.2266 76.0159 64.2266C75.7958 64.2266 75.5931 64.186 75.4077 64.105C75.234 64.0239 75.0313 63.9833 74.7996 63.9833C74.5911 63.9833 74.3768 64.0355 74.1568 64.1397C73.9483 64.2324 73.7513 64.3829 73.566 64.5915C73.3923 64.7999 73.2475 65.0606 73.1316 65.3733C73.0274 65.6745 72.9753 66.0336 72.9753 66.4506V70.5684C72.9753 70.8696 72.8768 71.1244 72.6799 71.3329C72.483 71.5298 72.2339 71.6283 71.9328 71.6283ZM80.0919 71.3329C80.2888 71.1244 80.3873 70.8696 80.3873 70.5684V63.3926C80.3873 63.0914 80.2888 62.8424 80.0919 62.6455C79.895 62.437 79.646 62.3327 79.3448 62.3327C79.0436 62.3327 78.7946 62.437 78.5977 62.6455C78.4007 62.8424 78.3023 63.0914 78.3023 63.3926V70.5684C78.3023 70.8696 78.4007 71.1244 78.5977 71.3329C78.7946 71.5298 79.0436 71.6283 79.3448 71.6283C79.646 71.6283 79.895 71.5298 80.0919 71.3329ZM78.4934 61.0122C78.6556 61.1396 78.9336 61.2034 79.3274 61.2034C79.7212 61.2034 80.005 61.1454 80.1788 61.0296C80.3525 60.9022 80.4394 60.6705 80.4394 60.3346V60.0045C80.4394 59.6802 80.3583 59.4543 80.1962 59.3269C80.034 59.1994 79.7502 59.1357 79.3448 59.1357C78.9741 59.1357 78.6961 59.1994 78.5108 59.3269C78.337 59.4427 78.2502 59.6686 78.2502 60.0045V60.3346C78.2502 60.6589 78.3312 60.8848 78.4934 61.0122ZM86.9086 71.802C85.924 71.802 85.0668 71.5993 84.3371 71.1939C83.6189 70.7769 83.0629 70.2151 82.6691 69.5085C82.2868 68.802 82.0957 68.0027 82.0957 67.1108C82.0957 66.0683 82.3042 65.1822 82.7212 64.4525C83.1498 63.7111 83.7058 63.1435 84.3892 62.7497C85.0726 62.3559 85.7966 62.159 86.5611 62.159C87.1518 62.159 87.7078 62.2806 88.229 62.5238C88.7619 62.7671 89.231 63.103 89.6364 63.5316C90.0418 63.9486 90.3604 64.4351 90.592 64.9911C90.8353 65.5471 90.9569 66.1378 90.9569 66.7633C90.9453 67.0413 90.8353 67.2672 90.6268 67.4409C90.4183 67.6147 90.175 67.7016 89.897 67.7016H84.1594C84.2213 68.0229 84.3268 68.3125 84.4761 68.5703C84.7425 68.9989 85.0784 69.329 85.4838 69.5607C85.9008 69.7807 86.341 69.8908 86.8043 69.8908C87.2329 69.8908 87.5746 69.856 87.8294 69.7865C88.0843 69.717 88.287 69.636 88.4375 69.5433C88.5997 69.439 88.7445 69.3522 88.8719 69.2827C89.0804 69.1784 89.2773 69.1263 89.4627 69.1263C89.7175 69.1263 89.926 69.2132 90.0882 69.3869C90.2619 69.5607 90.3488 69.7634 90.3488 69.995C90.3488 70.3078 90.1866 70.5916 89.8623 70.8464C89.5611 71.1012 89.1383 71.3271 88.5939 71.524C88.0495 71.7094 87.4877 71.802 86.9086 71.802ZM84.2849 65.5644C84.2429 65.6869 84.2077 65.8201 84.1795 65.9641H88.7329V65.8424C88.7097 65.5065 88.5881 65.2054 88.368 64.9389C88.1595 64.6725 87.8931 64.464 87.5688 64.3135C87.2561 64.1513 86.9201 64.0702 86.5611 64.0702C86.2136 64.0702 85.8892 64.1165 85.5881 64.2092C85.2869 64.3019 85.0263 64.4582 84.8062 64.6783C84.5861 64.8984 84.4124 65.1938 84.2849 65.5644Z" fill="#923B1D"/>
</svg>
